<?xml version="1.0" encoding="utf-8"?>
<!-- Generator: Adobe Illustrator 27.0.1, SVG Export Plug-In . SVG Version: 6.00 Build 0)  -->
<svg version="1.1" id="Layer_1" xmlns="http://www.w3.org/2000/svg" xmlns:xlink="http://www.w3.org/1999/xlink" x="0px" y="0px"
	 viewBox="0 0 1000 1000" style="enable-background:new 0 0 1000 1000;" xml:space="preserve">
<style type="text/css">
	.st0{fill:#E31837;}
</style>
<g>
	<path class="st0" d="M189.7,159.8c-12.8-12.8-33.4-12.8-46.2,0c-12.8,12.8-12.8,33.4,0,46.2l46.2,46.2c12.8,12.8,33.4,12.8,46.2,0
		c12.8-12.8,12.8-33.4,0-46.2L189.7,159.8z M810.3,159.8L764.1,206c-12.8,12.8-12.8,33.4,0,46.2c12.7,12.8,33.4,12.8,46.2,0
		l46.2-46.2c12.8-12.8,12.8-33.4,0-46.2C843.8,147,823.1,147,810.3,159.8z M108,418.3H42.7C24.6,418.3,10,433,10,451
		s14.6,32.7,32.7,32.7H108c18,0,32.7-14.6,32.7-32.7S126,418.3,108,418.3z M957.3,418.3H892c-18,0-32.7,14.6-32.7,32.7
		s14.6,32.7,32.7,32.7h65.3c18,0,32.7-14.6,32.7-32.7S975.4,418.3,957.3,418.3z M467.3,42.7V108c0,18,14.6,32.7,32.7,32.7
		c18.1,0,32.7-14.6,32.7-32.7V42.7c0-18-14.6-32.7-32.7-32.7C482,10,467.3,24.6,467.3,42.7z M271.3,500
		c0-126.3,102.4-228.7,228.7-228.7S728.7,373.7,728.7,500S626.3,728.7,500,728.7S271.3,626.3,271.3,500z M206,500
		c0,162.4,131.6,294,294,294s294-131.6,294-294S662.4,206,500,206S206,337.6,206,500z M434.7,957.3c0,18,14.6,32.7,32.7,32.7h65.3
		c18,0,32.7-14.6,32.7-32.7c0-18.1-14.6-32.7-32.7-32.7h-65.3C449.3,924.7,434.7,939.3,434.7,957.3z M369.3,859.3
		c0,18,14.6,32.7,32.7,32.7h196c18,0,32.7-14.6,32.7-32.7c0-18.1-14.6-32.7-32.7-32.7H402C384,826.7,369.3,841.3,369.3,859.3z"/>
</g>
</svg>
