<svg xmlns="http://www.w3.org/2000/svg" width="64.911" height="65.322" viewBox="0 0 64.911 65.322">
  <g id="branch-with-leaves" transform="translate(0)">
    <path id="Path_50" data-name="Path 50" d="M25.833,6.419c1.728,3.02.314,4.176-1.1,4.967s-3.1,1.068-4.826-1.945S18.11,0,18.11,0,24.1,3.4,25.833,6.419Z" transform="translate(27.182)" fill="#e31837"/>
    <path id="Path_51" data-name="Path 51" d="M28.1,12.025c-1.495,3.143-3.246,2.645-4.7,1.947S20.752,12.03,22.231,8.9c1.495-3.15,6.718-6.874,6.718-6.874S29.587,8.884,28.1,12.025Z" transform="translate(32.389 3.059)" fill="#e31837"/>
    <path id="Path_52" data-name="Path 52" d="M28.333,16.411c-2.254,2.653-3.821,1.721-5.04.671s-2.06-2.558.176-5.2c2.249-2.663,8.268-4.909,8.268-4.909S30.579,13.758,28.333,16.411Z" transform="translate(33.174 10.541)" fill="#e31837"/>
    <path id="Path_53" data-name="Path 53" d="M26.66,10.434c3.088,1.8,2.457,3.507,1.633,4.9s-2.168,2.472-5.251.681-6.507-7.4-6.507-7.4S23.565,8.64,26.66,10.434Z" transform="translate(24.8 13.021)" fill="#e31837"/>
    <path id="Path_54" data-name="Path 54" d="M26.255,20.236c-3.02,1.728-4.176.322-4.972-1.083s-1.07-3.108,1.937-4.836,9.444-1.811,9.444-1.811S29.272,18.5,26.255,20.236Z" transform="translate(31.182 18.913)" fill="#e31837"/>
    <path id="Path_55" data-name="Path 55" d="M25.084,16.33c2.211,2.816.987,4.168-.286,5.155s-2.937,1.5-5.138-1.309-3.3-9.283-3.3-9.283S22.876,13.523,25.084,16.33Z" transform="translate(24.541 16.474)" fill="#e31837"/>
    <path id="Path_56" data-name="Path 56" d="M23.069,23.716c-3.432.6-4.037-1.113-4.311-2.7s.038-3.284,3.447-3.894c3.434-.611,9.5,1.5,9.5,1.5S26.48,23.1,23.069,23.716Z" transform="translate(28.047 25.722)" fill="#e31837"/>
    <path id="Path_57" data-name="Path 57" d="M22.59,20.677c1.51,3.246,0,4.281-1.467,4.952s-3.193.781-4.688-2.45c-1.51-3.248-1.085-9.8-1.085-9.8S21.092,17.436,22.59,20.677Z" transform="translate(22.923 20.237)" fill="#e31837"/>
    <path id="Path_58" data-name="Path 58" d="M19.512,24.157c.616,3.517-1.1,4.133-2.688,4.4s-3.3-.07-3.907-3.578c-.616-3.527,1.475-9.748,1.475-9.748S18.894,20.635,19.512,24.157Z" transform="translate(19.157 23.042)" fill="#e31837"/>
    <path id="Path_59" data-name="Path 59" d="M18.851,26.815c-3.54-.525-3.578-2.354-3.334-3.944.261-1.6,1.105-3.1,4.63-2.573,3.54.53,8.783,4.479,8.783,4.479S22.381,27.342,18.851,26.815Z" transform="translate(23.13 30.534)" fill="#e31837"/>
    <path id="Path_60" data-name="Path 60" d="M16.411,26.7c.256,3.568-1.515,4-3.125,4.113-1.615.093-3.266-.412-3.525-3.959-.246-3.573,2.47-9.544,2.47-9.544S16.162,23.14,16.411,26.7Z" transform="translate(14.531 26.177)" fill="#e31837"/>
    <path id="Path_61" data-name="Path 61" d="M14.483,29.18c-3.377-1.2-3.068-2.995-2.515-4.512s1.678-2.831,5.037-1.643S24.763,29.1,24.763,29.1,17.844,30.368,14.483,29.18Z" transform="translate(17.373 34.123)" fill="#e31837"/>
    <path id="Path_62" data-name="Path 62" d="M26.3,5.624c3.432.93,3.261,2.754,2.829,4.3s-1.455,2.952-4.871,2.025C20.81,11.02,16.107,6.5,16.107,6.5S22.868,4.7,26.3,5.624Z" transform="translate(24.153 8.104)" fill="#e31837"/>
    <path id="Path_63" data-name="Path 63" d="M26.6,23.44S10.39,29.816.275,27.545C-.519,28.49,1.4,29.872,1.4,29.872S16.118,30.1,26.6,23.44Z" transform="translate(-0.082 35.449)" fill="#e31837"/>
  </g>
</svg>
