<svg xmlns="http://www.w3.org/2000/svg" viewBox="0 0 237.8 49" xmlns:v="https://vecta.io/nano"><path d="M86.1 44.7a1.11 1.11 0 0 1-1.1-1.1V1.1A1.11 1.11 0 0 1 86.1 0a1.11 1.11 0 0 1 1.1 1.1v42.5c-.1.6-.6 1.1-1.1 1.1z" fill="#9c8f91"/><path d="M103.5 1.2h9.6v37.4h-9.6zm13.5 0h28.9v7.7h-19.3v6.8h19.3v7.5h-19.3V31H146v7.6h-29zm32.6 0h9.6v29.3h17.6v8.1h-27.2zm30.8 7.6h-10.7V1.2h31v7.6h-10.8v29.8h-9.5zm29.9 17.4c.1 4.3 2.5 6.4 7.1 6.4 4 0 6.1-1.4 6.1-3.7 0-1.3-.6-2.2-1.5-2.6-2.2-1.1-6.5-1.9-12-4-5.4-2.1-8.2-5.7-8.2-10.3 0-7 5.6-11.7 14.9-11.7 9.1 0 14.6 4.9 14.6 12.3h-9c-.3-3.6-2.3-5.2-6.2-5.2-3.2 0-5.2 1.5-5.2 3.4 0 2.8 2.9 3.4 8.8 5.3 4.3 1.4 7.4 2.4 9.3 3.8 2.4 2 3.7 4.7 3.7 7.9 0 7.3-5.8 11.8-16.3 11.8-9.7 0-14.8-4.4-15.3-13.5h9.2z" fill="#e31837"/><path d="M230.9 1.9h-1.2v-.8h3.4v.8h-1.3v3.4h-.9zm2.7-.8h1.3l.8 3.2.8-3.2h1.3v4.2h-.8V2l-.8 3.3h-.9l-.9-3.3v3.3h-.8z"/><path d="M55.9 11.6c-3.7 0-6.8 1.6-8.6 4v-1.2c0-1.6-1.3-2.8-2.8-2.8h0c-1.6 0-2.8 1.3-2.8 2.8v31.7c0 1.6 1.3 2.9 2.9 2.9h0c1.6 0 2.9-1.3 2.9-2.9V34.9c2.3 2.6 5.6 3.7 8.6 3.7 6.4 0 12.7-4.8 12.7-13.6-.1-9-6.8-13.4-12.9-13.4zm-.6 21.8c-3.9 0-7.9-2.8-7.9-8.5 0-5.5 3.9-8.3 7.9-8.3 3.9 0 7.8 2.7 7.8 8.3-.1 5.7-3.9 8.5-7.8 8.5zm-32.2 5.3c3.7 0 6.8-1.5 8.6-4v1.2c0 1.5 1.3 2.8 2.8 2.8h0c1.6 0 2.8-1.3 2.8-2.8V4.1c0-1.6-1.3-2.9-2.9-2.9h0c-1.6 0-2.9 1.3-2.9 2.9v11.2c-2.3-2.6-5.6-3.7-8.6-3.7-6.4 0-12.7 4.8-12.7 13.6.1 9 6.8 13.5 12.9 13.5zm.6-21.9c3.9 0 7.9 2.8 7.9 8.5 0 5.5-3.9 8.3-7.9 8.3-3.9 0-7.8-2.7-7.8-8.3.1-5.7 3.9-8.5 7.8-8.5zM4.1 0C1.8 0 0 1.8 0 4.1s1.8 4.1 4.1 4.1 4.1-1.8 4.1-4.1S6.4 0 4.1 0zm0 11.6h0c-1.6 0-2.9 1.3-2.9 2.9V36c0 1.5 1.3 2.8 2.9 2.8h0c1.5 0 2.8-1.2 2.9-2.8h0V14.5c0-1.7-1.3-2.9-2.9-2.9z" fill="#333f48"/></svg>