<svg xmlns="http://www.w3.org/2000/svg" viewBox="0 0 46.6 49" xmlns:v="https://vecta.io/nano"><path d="M43.2 30.4c-2.3-3.3-5-4.6-5-4.6-2.7-1.6-6.4-1.4-6.4-1.4-.8 1.7-2.5 3-4.5 3a4.65 4.65 0 0 1-2.1-.5c-2.9 3.8-2.6 7-2.6 7.2.2 4.9 4.9 14.9 23.8 15 0-.5 1.5-12.6-3.2-18.7" fill="#0086f8"/><path d="M28 4.8C22.7-.3 13-2.2.6 3.3c0 .2 3.8 15.9 20.5 18.5h0c.4 0 .8.1 1.3.1h0a4.91 4.91 0 0 1 4.9-4.5 4.53 4.53 0 0 1 1.6.3c4.8-7.4-.4-12.3-.9-12.9z" fill="#ff8300"/><path d="M25.1 26.8h0c-1.7-.8-2.9-2.5-2.9-4.5v-.4c-1.5-.2-2.6-.1-2.6-.1-5.3 0-10.2 2.5-12.1 4.1C.6 31.4 0 40.4 0 40.4c.4 0 12.8 1.7 20.3-5.8.7-.7 1.5-1.7 2.1-2.6 0 0 .2-.3.5-.9h0c.3-1.1 1-2.6 2.2-4.3h0z" fill="#51c21a"/></svg>